PathFileType	4	(X/Y/Z)	A12_1_OpenSim.trc																																																																																																																						
DataRate	CameraRate	NumFrames	NumMarkers	Units	OrigDataRate	OrigDataStartFrame	OrigNumFrames																																																																																																																		
100	100	4	40	mm	100	751	3000																																																																																																																		
Frame#	Time	R.ASIS			R.PSIS			S2			L.PSIS			L.ASIS			R.TH1			R.TH2			R.TH3			R.MKnee			R.Knee			R.SH1			R.SH2			R.SH3			R.SH4			R.Ankle			R.MAnkle			R.Heel			R.MT5			R.MT1			L.TH1			L.TH2			L.TH3			L.TH4			L.MKnee			L.Knee			L.SH1			L.SH2			L.SH3			L.Ankle			L.MAnkle			L.Heel			L.MT5			L.MT1			R.Acr			L.Acr			C7			T10			Clav			Sternum			R.Back		
		X1	Y1	Z1	X2	Y2	Z2	X3	Y3	Z3	X4	Y4	Z4	X5	Y5	Z5	X6	Y6	Z6	X7	Y7	Z7	X8	Y8	Z8	X9	Y9	Z9	X10	Y10	Z10	X11	Y11	Z11	X12	Y12	Z12	X13	Y13	Z13	X14	Y14	Z14	X15	Y15	Z15	X16	Y16	Z16	X17	Y17	Z17	X18	Y18	Z18	X19	Y19	Z19	X20	Y20	Z20	X21	Y21	Z21	X22	Y22	Z22	X23	Y23	Z23	X24	Y24	Z24	X25	Y25	Z25	X26	Y26	Z26	X27	Y27	Z27	X28	Y28	Z28	X29	Y29	Z29	X30	Y30	Z30	X31	Y31	Z31	X32	Y32	Z32	X33	Y33	Z33	X34	Y34	Z34	X35	Y35	Z35	X36	Y36	Z36	X37	Y37	Z37	X38	Y38	Z38	X39	Y39	Z39	X40	Y40	Z40
751	7.5	901.6357	1075.5988	-381.4022	711.5541	1071.5725	-474.7872	704.4614	1063.788	-520.209	707.0118	1069.2295	-570.1798	883.2814	1070.0648	-670.9638	882.8052	733.6338	-373.1562	802.067	730.3603	-360.3432	805.0464	621.3481	-380.3228	824.3306	507.2403	-515.6672	827.6619	504.4999	-398.3731	816.9272	336.5829	-406.7344	804.3661	227.8747	-432.8936	735.9488	343.6001	-391.7577	727.5626	231.8785	-410.6028	717.6491	77.5515	-434.4186	760.2672	94.8599	-526.5149	661.0889	39.5057	-496.5833	828.8673	37.3328	-399.843	882.7419	38.5056	-485.3869	966.1032	806.5543	-695.5397	1005.8274	704.8811	-693.1088	890.3623	772.4829	-708.6016	932.0323	671.8154	-698.911	1044.3108	545.3953	-578.3025	1031.802	555.9724	-692.5871	1011.0134	421.2852	-711.6547	932.5594	444.4919	-709.9121	904.1801	338.5303	-706.5073	900.1627	131.0644	-715.1851	934.4358	133.023	-617.9645	829.5095	108.3664	-658.2435	991.7067	56.6435	-733.7981	1034.8182	61.8688	-633.2825	840.9941	1467.531	-373.3801	787.5893	1444.3237	-699.0693	757.5329	1499.1659	-534.1014	733.7994	1173.858	-519.0128	895.941	1406.9562	-545.1703	930.1822	1266.1284	-532.2396	692.8759	1402.8821	-434.4052
752	7.51	901.5763	1074.3192	-381.6515	711.4501	1071.1515	-475.0536	704.4132	1063.3724	-520.4452	706.9482	1068.8254	-570.4274	883.2139	1068.9304	-671.2726	878.9899	732.3898	-373.6604	798.2957	730.1079	-360.1055	799.7431	621.1096	-380.1968	816.7726	506.6881	-515.7554	820.3639	503.8662	-398.4886	807.7717	336.0578	-406.8616	794.0759	227.4974	-433.0937	726.8945	343.8765	-391.8308	717.3828	232.2361	-410.6961	705.9185	77.8237	-434.5528	748.5785	94.8871	-526.7043	649.1816	39.8877	-496.6568	816.9119	37.298	-399.8339	870.7102	38.449	-485.3912	964.5741	804.8519	-695.9531	1003.8066	703.0347	-693.1645	888.6028	771.0589	-708.8613	930.0427	670.2444	-698.9218	1042.3696	543.7114	-578.3856	1030.0759	554.2537	-692.347	1016.3398	419.2216	-712.1036	936.7426	437.8274	-710.9424	914.6514	330.4425	-707.8331	923.7377	122.3979	-717.1425	956.98	126.1378	-619.6642	854.2418	95.2167	-660.8588	1019.7541	53.9244	-735.095	1061.7473	61.3772	-634.2233	841.4143	1466.576	-373.7973	787.479	1443.2078	-699.5151	757.7726	1498.2261	-534.4546	733.9164	1172.9785	-519.2492	896.1928	1405.9381	-545.7358	930.3351	1265.0498	-532.7516	693.201	1401.9359	-434.5577
753	7.52	901.6212	1072.8767	-381.9682	711.4613	1070.6119	-475.4053	704.5101	1062.8427	-520.7722	707.0732	1068.2887	-570.7571	883.2899	1067.5829	-671.6425	875.3489	731.054	-374.2133	794.7151	729.7513	-359.9577	794.6558	620.7941	-380.1881	809.4935	506.1011	-515.9291	813.3008	503.1985	-398.7024	798.7579	335.5048	-407.0659	783.884	227.0945	-433.3471	718.0195	344.1664	-391.9744	707.3076	232.6294	-410.8392	694.2137	78.1503	-434.69	736.9185	94.9465	-526.9086	637.2938	40.3261	-496.7406	804.9478	37.2792	-399.8454	858.6737	38.4134	-485.4175	962.7813	802.5266	-696.3646	1001.3355	700.5168	-693.2188	886.5454	769.1763	-709.1309	927.535	668.141	-698.911	1039.6399	541.3217	-578.3588	1027.6387	551.9	-692.0177	1020.9982	417.1525	-712.5287	940.5095	430.9911	-711.803	924.9246	322.5524	-709.0299	947.6095	114.7193	-719.0829	979.6406	120.1502	-621.3657	879.5653	83.01	-663.4967	1047.8055	52.5274	-736.3335	1088.4653	62.1449	-635.1432	841.8702	1465.4668	-374.2893	787.4564	1441.9607	-700.0561	758.0752	1497.123	-534.8992	734.1229	1171.9446	-519.5789	896.5214	1404.7922	-546.3694	930.601	1263.8556	-533.3354	693.5797	1400.8166	-434.8323
754	7.53	901.7634	1071.2952	-382.3651	711.5886	1069.9353	-475.8484	704.7416	1062.1788	-521.1984	707.3743	1067.6001	-571.1763	883.4969	1066.0399	-672.0823	871.8897	729.6379	-374.7984	791.3217	729.3038	-359.9129	789.7827	620.4099	-380.3194	802.5101	505.4853	-516.1902	806.4818	502.4982	-399.0177	789.8998	334.9248	-407.3412	773.8014	226.6706	-433.647	709.3297	344.4803	-392.1911	697.3425	233.0692	-411.0376	682.5364	78.5384	-434.8306	725.2985	95.0451	-527.1205	625.4296	40.8366	-496.8336	792.9744	37.2743	-399.8752	846.6342	38.3984	-485.4703	960.7798	799.6097	-696.7833	998.4878	697.3637	-693.2969	884.256	766.8658	-709.4353	924.566	665.5357	-698.9016	1036.1438	538.2672	-578.251	1024.5518	548.9532	-691.6205	1024.9639	415.1063	-712.946	943.8554	424.0571	-712.4911	934.9066	314.9621	-710.0698	971.5253	108.1853	-720.8846	1002.2106	115.2131	-622.9681	905.2474	71.9296	-665.9973	1075.5684	52.5452	-737.4319	1114.7209	64.2685	-636.0147	842.374	1464.2188	-374.8634	787.5372	1440.5968	-700.6869	758.4507	1495.8695	-535.4333	734.4107	1170.7667	-520.0104	896.9341	1403.5283	-547.0638	930.9835	1262.5549	-533.9848	694.019	1399.5486	-435.2323
